HIERARCHY
ROOT root
{
	OFFSET	0	13.1	24.9
	CHANNELS 6  Xposition Yposition Zposition Xrotation Yrotation Zrotation
	JOINT spine_1
	{
		OFFSET	0	9.99999	0
		CHANNELS 3  Xrotation Yrotation Zrotation
		JOINT spine_2
		{
			OFFSET	0	112	-10
			CHANNELS 3  Xrotation Yrotation Zrotation
			JOINT spine_3
			{
				OFFSET	0	206.5	19.3
				CHANNELS 3  Xrotation Yrotation Zrotation
				JOINT spine_4
				{
					OFFSET	0	110.4	14.6
					CHANNELS 3  Xrotation Yrotation Zrotation
					JOINT neck_1
					{
						OFFSET	0	71.8	-50.3
						CHANNELS 3  Xrotation Yrotation Zrotation
						JOINT neck_2
						{
							OFFSET	0	86.2	-25.8
							CHANNELS 3  Xrotation Yrotation Zrotation
							JOINT head_ee
							{
								OFFSET	0	179.8	-8.7
								CHANNELS 3  Xrotation Yrotation Zrotation
								End Site
								{
									OFFSET	1	0	0
								}
							}
						}
					}
					JOINT left_clavicle
					{
						OFFSET	-43.2	22.4	-70.8
						CHANNELS 3  Xrotation Yrotation Zrotation
						JOINT left_shoulder
						{
							OFFSET	-93.9	-5.79999	48.7
							CHANNELS 3  Xrotation Yrotation Zrotation
							JOINT left_elbow
							{
								OFFSET	-291.4	-30.8	15.2
								CHANNELS 3  Xrotation Yrotation Zrotation
								JOINT left_lowarm_twist
								{
									OFFSET	-110.7	-3.89999	13.6
									CHANNELS 3  Xrotation Yrotation Zrotation
									JOINT left_hand
									{
										OFFSET	-110.7	-3.89999	13.6
										CHANNELS 3  Xrotation Yrotation Zrotation
										JOINT left_ee
										{
											OFFSET	-80.8	-5.10001	12.1
											CHANNELS 3  Xrotation Yrotation Zrotation
											End Site
											{
												OFFSET	1	0	0
											}
										}
									}
								}
							}
						}
					}
					JOINT right_clavicle
					{
						OFFSET	43.2	22.4	-70.8
						CHANNELS 3  Xrotation Yrotation Zrotation
						JOINT right_shoulder
						{
							OFFSET	93.9	-5.79999	48.7
							CHANNELS 3  Xrotation Yrotation Zrotation
							JOINT right_elbow
							{
								OFFSET	291.4	-30.8	15.2
								CHANNELS 3  Xrotation Yrotation Zrotation
								JOINT right_lowarm_twist
								{
									OFFSET	110.7	-3.89999	13.6
									CHANNELS 3  Xrotation Yrotation Zrotation
									JOINT right_hand
									{
										OFFSET	110.7	-3.89999	13.6
										CHANNELS 3  Xrotation Yrotation Zrotation
										JOINT right_ee
										{
											OFFSET	80.8	-5.10001	12.1
											CHANNELS 3  Xrotation Yrotation Zrotation
											End Site
											{
												OFFSET	1	0	0
											}
										}
									}
								}
							}
						}
					}
				}
			}
		}
	}
	JOINT left_hip
	{
		OFFSET	-82.8	-127.5	0.300001
		CHANNELS 3  Xrotation Yrotation Zrotation
		JOINT left_knee
		{
			OFFSET	-28.2	-396.7	2.2
			CHANNELS 3  Xrotation Yrotation Zrotation
			JOINT left_ankle
			{
				OFFSET	-11.7	-411.3	35.4
				CHANNELS 3  Xrotation Yrotation Zrotation
				JOINT left_toes
				{
					OFFSET	0	-60	-88.6
					CHANNELS 3  Xrotation Yrotation Zrotation
					JOINT left_foot_ee
					{
						OFFSET	-22.5	-16.5	-42.2
						CHANNELS 3  Xrotation Yrotation Zrotation
						End Site
						{
							OFFSET	1	0	0
						}
					}
				}
			}
		}
	}
	JOINT right_hip
	{
		OFFSET	82.8	-127.5	0.300001
		CHANNELS 3  Xrotation Yrotation Zrotation
		JOINT right_knee
		{
			OFFSET	28.2	-396.7	2.2
			CHANNELS 3  Xrotation Yrotation Zrotation
			JOINT right_ankle
			{
				OFFSET	11.7	-411.3	35.4
				CHANNELS 3  Xrotation Yrotation Zrotation
				JOINT right_toes
				{
					OFFSET	0	-60	-88.6
					CHANNELS 3  Xrotation Yrotation Zrotation
					JOINT right_foot_ee
					{
						OFFSET	22.5	-16.5	-42.2
						CHANNELS 3  Xrotation Yrotation Zrotation
						End Site
						{
							OFFSET	1	0	0
						}
					}
				}
			}
		}
	}
}
MOTION
Frames: 10
Frame Time: 0.02
2542.16403239 734.573 -1539.63186898 -98.0521666851 84.0224054961 90.8141873706 3.49541 0.202323 2.49564 3.49888 0.0431599 2.50345 3.4992 -0.333325 2.48155 3.49062 0.0626458 2.50304 -24.8475 18.2535 -8.83051 -28.3447 38.7238 2.51003 -0.0 0.0 -0.0 -8.37597 17.5603 -11.073 -0.716345 -19.6988 81.1934 0.392885 -11.0136 0.0378778 -63.9611 -5.77908 5.20732 7.7344 -26.5226 41.3066 -0.0 0.0 -0.0 10.1395 -10.0001 -19.1194 -20.1988 27.4928 -61.2722 1.91184 43.4382 -0.761611 58.3225 1.62688 6.95104 -8.69079 -30.2713 37.5477 0.0 0.0 0.0 16.4677 6.12549 -3.08488 -20.925 0.283497 3.18076 5.42535 21.0962 -0.802923 -27.8546 0.0 0.0 -0.0 0.0 -0.0 15.0927 -4.88075 5.77679 -2.72794 -0.102668 -0.406022 28.4744 24.8716 4.34666 -37.6267 0.0 0.0 0.0 0.0 0.0 
2533.0106716 733.442 -1531.67354023 -124.710228417 82.5250005189 118.279275436 3.53143 0.261508 2.55419 3.53505 0.0985033 2.56564 3.53781 -0.286186 2.55154 3.52874 0.120237 2.56471 -24.2425 18.3535 -9.0949 -27.6861 39.1395 2.12149 -0.0 0.0 -0.0 -7.60182 16.1352 -10.2781 -0.969039 -18.5481 79.2734 0.232905 -6.58153 0.0133917 -61.156 -5.42685 5.13571 6.98809 -23.4609 37.9277 -0.0 0.0 -0.0 10.3991 -13.575 -19.1398 -19.8271 27.6734 -60.6954 1.98384 44.4961 -0.811599 54.6291 1.31977 6.591 -8.47015 -30.0343 36.2714 0.0 0.0 0.0 17.5026 8.27063 -3.23556 -17.2195 0.318376 2.61339 4.36259 20.3534 -0.645632 -27.598 0.0 0.0 -0.0 0.0 -0.0 14.6165 -5.85531 4.95699 -2.99506 -0.111678 -0.446027 30.2422 23.8538 4.51336 -37.0486 0.0 0.0 0.0 0.0 0.0 
2525.52581529 728.238 -1522.64812914 -138.153747126 80.5837780223 132.54034655 3.58283 0.302403 2.98315 3.58778 0.112052 2.99633 3.59131 -0.334467 2.97973 3.57895 0.140105 2.99515 -22.1847 17.4121 -13.3614 -24.9498 39.6958 -3.24557 -0.0 0.0 -0.0 -7.57448 15.3937 -10.4716 -1.55713 -18.6599 77.4796 0.196604 -5.56275 0.00955146 -57.718 -5.00039 5.02448 8.11057 -23.0122 47.847 -0.0 0.0 -0.0 10.6708 -12.2892 -19.8154 -20.8291 27.5901 -60.3105 2.09877 46.1086 -0.893306 50.9237 1.03573 6.21086 -6.84179 -29.483 26.1857 0.0 0.0 0.0 18.6115 9.02657 -4.32456 -14.4352 0.320411 2.18625 2.74622 17.4825 -0.404297 -28.8849 0.0 0.0 -0.0 0.0 -0.0 14.5299 -6.95497 3.89743 -4.58276 -0.161372 -0.684617 31.1984 24.8403 4.67121 -40.1858 0.0 0.0 0.0 0.0 0.0 
2519.48311201 728.671 -1513.22245523 -142.921002513 79.0328584382 137.847618027 3.69265 0.371471 2.77253 3.6969 0.194365 2.79053 3.70425 -0.216847 2.78887 3.69347 0.226149 2.78813 -20.8625 16.8409 -13.2262 -23.1763 38.8454 -4.00079 -0.0 0.0 -0.0 -7.85172 14.0689 -11.3722 -3.17107 -16.6267 78.6664 0.256852 -7.25136 0.0162754 -54.4032 -4.59605 4.89315 8.62731 -24.2717 51.3761 -0.0 0.0 -0.0 10.9078 -11.7239 -20.3342 -21.928 28.4149 -59.9633 2.10085 46.1369 -0.894805 46.4344 0.725534 5.72718 -6.69302 -27.9697 26.676 0.0 0.0 0.0 18.7953 8.82856 -4.19165 -9.63638 0.275235 1.45153 2.07484 14.4237 -0.303791 -30.7456 0.0 0.0 -0.0 0.0 -0.0 14.445 -9.88948 3.18488 -5.98441 -0.199729 -0.896297 38.1429 25.6909 5.46128 -39.9188 0.0 0.0 0.0 0.0 0.0 
2498.5858114 725.754 -1506.45814546 -141.159622759 77.9274514047 137.218735768 3.87614 0.450123 2.267 3.87894 0.304995 2.29103 3.88961 -0.0265578 2.31108 3.88232 0.33867 2.28629 -17.5153 15.9399 -5.58583 -18.9486 33.6454 1.33219 -0.0 0.0 -0.0 -8.1338 11.3632 -12.7487 -7.24681 -10.4341 79.8787 0.355763 -9.99506 0.0311099 -42.6108 -3.23301 4.2418 9.19147 -24.5459 56.7454 -0.0 0.0 -0.0 10.4223 -13.9117 -19.1331 -22.0046 27.265 -60.5298 1.98354 44.4919 -0.811393 26.3686 -0.164243 3.33478 -1.34146 -10.5882 4.18661 0.0 0.0 0.0 17.2316 7.00568 -5.35085 -3.96792 0.142913 0.592063 25.7708 -17.9873 -3.75795 -30.118 0.0 0.0 -0.0 0.0 -0.0 16.4385 -17.47 2.89473 -14.344 -0.320126 -2.17225 38.1093 24.5283 5.39429 -19.753 0.0 0.0 0.0 0.0 0.0 
2491.8748607 737.827 -1509.32569964 -129.810278269 77.9241174298 125.741904519 4.29878 0.295579 2.33045 4.30179 0.146729 2.34452 4.30579 -0.173972 2.34266 4.29819 0.198087 2.34075 -25.8542 15.7541 -6.97454 -28.4206 33.0481 2.66411 -0.0 0.0 -0.0 -7.51473 10.1023 -12.0153 -7.62126 -7.71534 80.7349 0.392045 -10.9907 0.0377177 -37.9974 -2.74074 3.91315 6.63612 -12.4932 43.0941 -0.0 0.0 -0.0 10.459 -16.6055 -18.7843 -20.0108 25.0622 -62.9237 1.12656 29.1634 -0.29307 12.3005 -0.268414 1.54536 4.58399 28.7165 -17.173 0.0 0.0 0.0 18.9823 8.00152 -4.56895 -3.55589 0.129987 0.53015 17.8908 -17.4764 -2.71507 -16.1884 0.0 0.0 -0.0 0.0 -0.0 19.886 -28.8872 5.1927 -14.2719 -0.319886 -2.16119 35.2437 32.7 5.61802 -10.6256 0.0 0.0 0.0 0.0 0.0 
2486.98203686 739.808 -1511.87118262 -127.606588178 78.2870412733 123.573105569 4.37533 0.356189 2.29015 4.37822 0.209778 2.30816 4.38469 -0.103314 2.31537 4.37731 0.263553 2.30265 -25.4206 16.7706 -7.13019 -28.3181 35.1113 3.1248 -0.0 0.0 -0.0 -7.6336 9.70399 -12.354 -7.67819 -7.44685 81.1854 0.416857 -11.6677 0.0425918 -39.2329 -2.86995 4.00502 5.73259 -6.09513 39.0048 -0.0 0.0 -0.0 10.4931 -17.5405 -18.6879 -20.0843 24.6521 -63.1532 0.930723 24.7518 -0.204227 10.4377 -0.24919 1.30819 4.49331 27.3672 -17.3928 0.0 0.0 0.0 19.0828 8.68509 -4.6947 -5.68082 0.191861 0.850371 14.3702 -12.4386 -2.13874 -12.1995 0.0 0.0 -0.0 0.0 -0.0 20.5149 -30.1213 5.70367 -14.03 -0.318977 -2.12409 27.834 32.3843 4.67508 -10.2587 0.0 0.0 0.0 0.0 0.0 
2486.74154565 739.808 -1509.83430397 -128.998991739 78.0567141331 124.995709608 4.37533 0.356189 2.29015 4.37822 0.209778 2.30816 4.38469 -0.103314 2.31537 4.37731 0.263553 2.30265 -25.4206 16.7706 -7.13019 -28.3181 35.1113 3.1248 -0.0 0.0 -0.0 -7.6336 9.70399 -12.354 -7.67819 -7.44685 81.1854 0.416857 -11.6677 0.0425918 -39.2329 -2.86995 4.00502 5.73259 -6.09513 39.0048 -0.0 0.0 -0.0 10.4931 -17.5405 -18.6879 -20.0843 24.6521 -63.1532 0.930723 24.7518 -0.204227 10.4377 -0.24919 1.30819 4.49331 27.3672 -17.3928 0.0 0.0 0.0 19.0828 8.68509 -4.6947 -5.68082 0.191861 0.850371 14.3702 -12.4386 -2.13874 -12.1995 0.0 0.0 -0.0 0.0 -0.0 20.5149 -30.1213 5.70367 -14.03 -0.318977 -2.12409 27.834 32.3843 4.67508 -10.2587 0.0 0.0 0.0 0.0 0.0 
2486.08533321 740.904 -1509.3796569 -124.235398539 78.6856156851 120.000491177 4.44689 0.475481 2.36131 4.44993 0.324305 2.38676 4.46129 0.0028888 2.40867 4.45339 0.383149 2.37803 -25.5938 16.3112 -6.31249 -28.3073 33.8796 3.58742 -0.0 0.0 -0.0 -7.44268 10.7105 -11.7007 -7.01335 -7.9084 80.8589 0.495972 -13.8038 0.0600362 -41.759 -3.14014 4.18411 5.08404 -0.143133 36.3979 -0.0 0.0 -0.0 10.2746 -18.1649 -18.2159 -20.6384 24.2833 -63.2901 0.85216 22.8861 -0.172495 10.5089 -0.250067 1.31725 4.14735 26.4207 -15.6602 0.0 0.0 0.0 19.4887 9.1748 -4.25765 -7.5177 0.235742 1.12883 12.738 -9.17048 -1.87325 -7.83783 0.0 0.0 -0.0 0.0 -0.0 20.3201 -31.1934 5.79836 -14.3138 -0.320027 -2.16762 31.3193 32.1998 5.11468 -9.24714 0.0 0.0 0.0 0.0 0.0 
2482.70816417 742.119 -1515.15647265 -116.753400175 79.4240359255 112.142989373 4.42188 0.480424 2.48418 4.42525 0.321427 2.5097 4.43696 -0.017453 2.53012 4.42824 0.382225 2.50116 -25.9836 16.8764 -6.57943 -28.9803 34.9995 3.88714 -0.0 0.0 -0.0 -7.21414 10.7596 -11.2732 -6.13947 -8.40036 79.8152 0.553518 -15.3336 0.0745125 -42.1557 -3.18329 4.21115 4.60352 5.60293 34.762 -0.0 0.0 -0.0 10.1821 -18.4445 -18.0155 -20.5822 23.8978 -63.2929 0.710948 19.4014 -0.121535 8.41885 -0.219664 1.05202 4.08322 24.6172 -16.2615 0.0 0.0 0.0 20.0425 9.86181 -4.16198 -9.50621 0.273152 1.43166 11.5055 -8.93781 -1.69843 -4.33706 0.0 0.0 -0.0 0.0 -0.0 20.4373 -29.7875 6.49753 -13.7129 -0.317548 -2.07545 27.4784 31.8117 4.59061 -9.35228 0.0 0.0 0.0 0.0 0.0 
